<svg
  xmlns="http://www.w3.org/2000/svg"
  viewBox="0 0 1500 1500"
  preserveAspectRatio="xMidYMid meet">


<style>
  .room {
    fill: #e6f1ff;
    stroke: #9bbcf2;
    stroke-width: 1.2;
    cursor: pointer;
    transition: fill 0.15s;
  }
  .room:hover { fill: #cfe3ff; }

  .label {
    font-size: 13px;
    fill: #2c2c2c;
    text-anchor: middle;
    dominant-baseline: middle;
    pointer-events: none;
  }

  .corridor { fill: #ded1d1ff; }

  .service {
    fill: #e0e0e0;
    stroke: #aaa;
  }

  .stair {
    fill: #4da3ff;
    stroke: #2c6fb7;
    stroke-width: 1;
  }
</style>
<g transform="translate(200,250)">
<!-- ===== КОРИДОРЫ ===== -->
  <rect class="corridor" x="20" y="105" width="1065" height="30"/>
  <rect class="corridor" x="525" y="105" width="30" height="380"/>
  <rect class="corridor" x="525" y="130" width="55" height="70"/>
  <rect class="corridor" x="445" y="595" width="190" height="50"/>
  <rect class="corridor" x="75" y="600" width="95" height="45"/>
  <rect class="corridor" x="75" y="605" width="945" height="30"/>
  <rect class="corridor" x="95" y="635" width="25" height="280"/>
  <rect class="corridor" x="925" y="600" width="95" height="45"/>
  <rect class="corridor" x="975" y="635" width="25" height="280"/>

  <!-- ===== 2 КОРПУС ===== -->
  <g>
    <!-- ===== ВЕРХНИЙ РЯД АУДИТОРИЙ 2 КОРПУСА ===== -->
    <g transform="translate(20,40)">

      <g class="room" data-room="2/300">
        <rect width="40" height="60"/>
        <text x="20" y="30" class="label">2/300</text>
      </g>

      <g class="room" data-room="2/301a" transform="translate(45,0)">
        <rect width="40" height="60"/>
        <text x="20" y="30" class="label">2/301a</text>
      </g>

      <g class="room" data-room="2/301" transform="translate(90,0)">
        <rect width="110" height="60"/>
        <text x="40" y="30" class="label">2/301</text>
      </g>

      <!-- WC -->
      <g class="service" transform="translate(205,0)">
        <rect width="25" height="60"/>
        <text x="13" y="30" class="label">WC</text>
      </g>

      <!-- ЛЕСТНИЦА 1 -->
      <g class="stair" data-node="stair_2_1" transform="translate(235,0)">
        <rect width="60" height="60" />
        <text x="20" y="24" class="label">⇧</text>
      </g>

      <g class="room" data-room="2/302" transform="translate(300,0)">
        <rect width="45" height="60"/>
        <text x="25" y="30" class="label">2/302</text>
      </g>

      <g class="room" data-room="2/303" transform="translate(350,0)">
        <rect width="70" height="60"/>
        <text x="35" y="30" class="label">2/303</text>
      </g>

      <g class="room" data-room="2/304" transform="translate(425,0)">
        <rect width="60" height="60"/>
        <text x="30" y="30" class="label">2/304</text>
      </g>

      <g class="room" data-room="2/306" transform="translate(490,0)">
        <rect width="80" height="60"/>
        <text x="40" y="30" class="label">2/306</text>
      </g>

      <g class="room" data-room="2/307" transform="translate(575,0)">
        <rect width="60" height="60"/>
        <text x="30" y="30" class="label">2/307</text>
      </g>

      <g class="room" data-room="2/308" transform="translate(640,0)">
        <rect width="70" height="60"/>
        <text x="35" y="30" class="label">2/308</text>
      </g>

      <g class="room" data-room="2/309" transform="translate(715,0)">
        <rect width="60" height="60"/>
        <text x="30" y="30" class="label">2/309</text>
      </g>

      <!-- ЛЕСТНИЦА 2 -->
      <g class="stair" data-node="stair_2_2" transform="translate(780,0)">
        <rect width="60" height="60" />
        <text x="20" y="24" class="label">⇧</text>
      </g>

      <!-- WC -->
      <g class="service" transform="translate(845,0)">
        <rect width="50" height="60"/>
        <text x="25" y="30" class="label">WC</text>
      </g>

      <g class="room" data-room="2/310" transform="translate(900,0)">
        <rect width="80" height="60"/>
        <text x="40" y="30" class="label">2/310</text>
      </g>

      <g class="room" data-room="2/311" transform="translate(985,0)">
        <rect width="80" height="60"/>
        <text x="40" y="30" class="label">2/311</text>
      </g>

    </g>

    <!-- ===== НИЖНИЙ РЯД 2 КОРПУСА ===== -->
    <g transform="translate(20,140)">
      <g class="room" data-room="conferemce-hall">
        <rect width="125" height="100"/>
        <text x="60" y="50" class="label">Конференц зал</text>
      </g>

      <g class="room" data-room="2/330" transform="translate(130,0)">
        <rect width="100" height="100"/>
        <text x="50" y="50" class="label">2/330</text>
      </g>

      <g class="room" data-room="2/329" transform="translate(235,0)">
        <rect width="50" height="60"/>
        <text x="25" y="30" class="label">2/329</text>
      </g>

      <g class="room" data-room="2/328" transform="translate(290,0)">
        <rect width="55" height="60"/>
        <text x="30" y="30" class="label">2/328</text>
      </g>

      <g class="room" data-room="2/327" transform="translate(350,0)">
        <rect width="60" height="60"/>
        <text x="30" y="30" class="label">2/327</text>
      </g>

      <g class="room" data-room="2/326" transform="translate(415,0)">
        <rect width="60" height="60"/>
        <text x="30" y="30" class="label">2/326</text>
      </g>

      <g class="service" transform="translate(480,0)">
        <rect width="20" height="60"/>
        <text x="10" y="30" class="label">Буфет</text>
      </g>

      <g class="room" data-room="2/315" transform="translate(565,0)">
        <rect width="70" height="60"/>
        <text x="35" y="30" class="label">2/315</text>
      </g>

      <g class="room" data-room="2/314" transform="translate(640,0)">
        <rect width="115" height="60"/>
        <text x="60" y="30" class="label">2/314</text>
      </g>

      <g class="room" data-room="2/312" transform="translate(760,0)">
          <rect width="80" height="60"/>
          <text x="40" y="30" class="label">2/312</text>
      </g>

      <g class="room" data-room="1" transform="translate(845,0)">
          <rect width="220" height="100"/>
          <text x="40" y="30" class="label"></text>
      </g>

      <g class="room" data-room="2/318" transform="translate(540,65)">
        <rect width="50" height="60"/>
        <text x="25" y="30" class="label">2/318</text>
      </g>

      <g class="room" data-room="2/319" transform="translate(540,130)">
        <rect width="50" height="50"/>
        <text x="25" y="25" class="label">2/319</text>
      </g>

      <g class="room" data-room="2/320" transform="translate(540,185)">
        <rect width="50" height="50"/>
        <text x="25" y="25" class="label">2/320</text>
      </g>

      <g class="room" data-room="2" transform="translate(540,240)">
        <rect width="50" height="50"/>
        <text x="25" y="25" class="label"></text>
      </g>

      <g class="room" data-room="3" transform="translate(540,295)">
        <rect width="50" height="50"/>
        <text x="25" y="25" class="label"></text>
      </g>

      <g class="room" data-room="2/323" transform="translate(450,185)">
        <rect width="50" height="50"/>
        <text x="25" y="25" class="label">2/323</text>
      </g>

      <g class="room" data-room="2/322" transform="translate(450,240)">
        <rect width="50" height="50"/>
        <text x="25" y="25" class="label">2/322</text>
      </g>

      <g class="room" data-room="2/321" transform="translate(450,295)">
        <rect width="50" height="50"/>
        <text x="25" y="25" class="label">2/321</text>
      </g>
      
      <!-- ЛЕСТНИЦА 3 -->
      <g class="stair" data-node="stair_2_3" transform="translate(450,135)">
        <rect width="50" height="20" />
        <text x="25" y="10" class="label">⇧</text>
      </g>

      <g class="room" data-room="4" transform="translate(450,160)">
        <rect width="50" height="20"/>
        <text x="25" y="25" class="label"></text>
      </g>

      <g class="room" data-room="2/325" transform="translate(450,65)">
        <rect width="50" height="65"/>
        <text x="25" y="30" class="label">2/325</text>
      </g>
    </g>
  </g>

  <!-- ===== 1 КОРПУС ===== -->
  <g>
    <!-- ===== ВЕРХНИЙ РЯД 1 КОРПУСА ===== -->
    <g transform="translate(20,490)">

      <!-- ЛЕСТНИЦА ГЛАВНАЯ -->
      <g class="stair" data-node="stair_main" transform="translate(480,0)">
        <rect width="80" height="100" />
        <text x="40" y="40" class="label">⇧</text>
      </g>

      <g class="room" data-room="1/301" transform="translate(425,0)">
        <rect width="50" height="100"/>
        <text x="25" y="30" class="label">1/301</text>
      </g>

      <g class="room" data-room="1/350" transform="translate(565,0)">
        <rect width="50" height="100"/>
        <text x="25" y="30" class="label">1/350</text>
      </g>

      <g class="room" data-room="1/302" transform="translate(395,50)">
        <rect width="25" height="60"/>
        <text x="15" y="30" class="label">1/302</text>
      </g>

      <g class="room" data-room="1/303" transform="translate(290,50)">
        <rect width="100" height="60"/>
        <text x="45" y="30" class="label">1/303</text>
      </g>

      <g class="room" data-room="5" transform="translate(260,50)">
        <rect width="25" height="60"/>
        <text x="15" y="30" class="label"></text>
      </g>

      <g class="room" data-room="1/305" transform="translate(155,50)">
        <rect width="100" height="60"/>
        <text x="45" y="30" class="label">1/305</text>
      </g>

      <g class="room" data-room="1/306" transform="translate(90,50)">
        <rect width="60" height="55"/>
        <text x="30" y="30" class="label">1/306</text>
      </g>

      <g class="room" data-room="1/307" transform="translate(0,50)">
        <rect width="85" height="55"/>
        <text x="45" y="30" class="label">1/307</text>
      </g>

    <!-- ЛЕСТНИЦА 1 -->
      <g class="stair" data-node="stair_1_1" transform="translate(0,110)">
        <rect width="50" height="45" />
        <text x="25" y="20" class="label">⇧</text>
      </g>

      <g class="room" data-room="1/308" transform="translate(0,160)">
        <rect width="70" height="35"/>
        <text x="35" y="20" class="label">1/308</text>
      </g>

      <g class="room" data-room="1/309" transform="translate(0,200)">
        <rect width="70" height="45"/>
        <text x="35" y="25" class="label">1/309</text>
      </g>

      <g class="room" data-room="1/310" transform="translate(0,250)">
        <rect width="70" height="85"/>
        <text x="35" y="40" class="label">1/310</text>
      </g>

      <g class="room" data-room="1/311" transform="translate(0,340)">
        <rect width="70" height="85"/>
        <text x="35" y="40" class="label">1/311</text>
      </g>

        <g class="room" data-room="6" transform="translate(0,430)">
        <rect width="55" height="90"/>
        <text x="30" y="45" class="label"></text>
      </g>

      <g class="room" data-room="conferemce-hall" transform="translate(60,430)">
        <rect width="170" height="90"/>
        <text x="80" y="45" class="label">Конференц зал</text>
      </g>

      <g class="room" data-room="1/345" transform="translate(740,50)">
        <rect width="100" height="60"/>
        <text x="45" y="30" class="label">1/345</text>
      </g>

    <g class="room" data-room="7" transform="translate(905,50)">
        <rect width="45" height="55"/>
        <text x="15" y="30" class="label"></text>
      </g>

      <g class="room" data-room="1/340" transform="translate(955,50)">
        <rect width="100" height="55"/>
        <text x="45" y="30" class="label">1/340</text>
      </g>

      <g class="room" data-room="1/344" transform="translate(845,50)">
        <rect width="55" height="60"/>
        <text x="30" y="30" class="label">1/344</text>
      </g>

      <g class="room" data-room="1/349" transform="translate(620,50)">
        <rect width="85" height="60"/>
        <text x="45" y="30" class="label">1/349</text>
      </g>

      <!-- ЛЕСТНИЦА 3 -->
      <g class="stair" data-node="stair_1_3" transform="translate(1005,110)">
        <rect width="50" height="45" />
        <text x="25" y="20" class="label">⇧</text>
      </g>

      <g class="room" data-room="1/335" transform="translate(985,160)">
        <rect width="70" height="35"/>
        <text x="35" y="20" class="label">1/335</text>
      </g>

      <g class="room" data-room="1/331" transform="translate(985,200)">
        <rect width="70" height="45"/>
        <text x="35" y="25" class="label">1/331</text>
      </g>

      <g class="room" data-room="1/330" transform="translate(985,250)">
        <rect width="70" height="85"/>
        <text x="35" y="40" class="label">1/330</text>
      </g>

      <g class="room" data-room="1/329" transform="translate(985,340)">
        <rect width="70" height="85"/>
        <text x="35" y="40" class="label">1/329</text>
      </g>

      <g class="room" data-room="conferemce-hall" transform="translate(825,430)">
        <rect width="230" height="90"/>
        <text x="120" y="45" class="label">Читальный зал</text>
      </g>

    </g>

    <g transform="translate(20,490)">
    <!-- ===== НИЖДНИЙЦ РЯД 1 КОРПУСА ===== -->

    <!-- ЛЕСТНИЦА 2 -->
      <g class="stair" data-node="stair_1_2" transform="translate(105,380)">
        <rect width="45" height="45" />
        <text x="25" y="20" class="label">⇧</text>
      </g>

      <g class="service" transform="translate(105,160)">
        <rect width="45" height="85"/>
        <text x="25" y="40" class="label">WC</text>
      </g>

      <g class="room" data-room="1/313" transform="translate(105,250)">
        <rect width="45" height="45"/>
        <text x="25" y="25" class="label">1/313</text>
      </g>

      <g class="room" data-room="1/312" transform="translate(105,300)">
        <rect width="45" height="75"/>
        <text x="25" y="40" class="label">1/312</text>
      </g>

      <g class="room" data-room="1/315" transform="translate(155,150)">
        <rect width="60" height="60"/>
        <text x="30" y="30" class="label">1/315</text>
      </g>

      <g class="room" data-room="1/316" transform="translate(220,150)">
        <rect width="80" height="60"/>
        <text x="40" y="30" class="label">1/316</text>
      </g>

      <g class="room" data-room="8" transform="translate(305,150)">
        <rect width="25" height="60"/>
        <text x="15" y="30" class="label"></text>
      </g>

      <g class="room" data-room="9" transform="translate(335,150)">
        <rect width="25" height="60"/>
        <text x="15" y="30" class="label"></text>
      </g>

      <g class="room" data-room="1/319" transform="translate(365,150)">
        <rect width="55" height="60"/>
        <text x="30" y="30" class="label">1/319</text>
      </g>

      <g class="room" data-room="action-hall" transform="translate(425,160)">
        <rect width="190" height="200"/>
        <text x="95" y="100" class="label">Актовый зал</text>
      </g>

      <g class="room" data-room="1/321" transform="translate(620,150)">
        <rect width="60" height="60"/>
        <text x="30" y="30" class="label">1/321</text>
      </g>

      <g class="room" data-room="1/322" transform="translate(685,150)">
        <rect width="80" height="60"/>
        <text x="40" y="30" class="label">1/322</text>
      </g>

      <g class="room" data-room="10" transform="translate(770,150)">
        <rect width="25" height="60"/>
        <text x="15" y="30" class="label"></text>
      </g>

      <g class="room" data-room="11" transform="translate(800,150)">
        <rect width="25" height="60"/>
        <text x="15" y="30" class="label"></text>
      </g>

      <g class="room" data-room="1/325" transform="translate(830,150)">
        <rect width="70" height="60"/>
        <text x="30" y="30" class="label">1/325</text>
      </g>

    <g class="room" data-room="12" transform="translate(710,50)">
        <rect width="25" height="60"/>
        <text x="15" y="30" class="label"></text>
      </g>

      <!-- ЛЕСТНИЦА 4 -->
      <g class="stair" data-node="stair_1_4" transform="translate(905,380)">
        <rect width="45" height="45" />
        <text x="25" y="10" class="label">⇧</text>
      </g>

      <g class="service" transform="translate(905,160)">
        <rect width="45" height="85"/>
        <text x="25" y="40" class="label">WC</text>
      </g>

      <g class="room" data-room="1/327" transform="translate(905,250)">
        <rect width="45" height="45"/>
        <text x="25" y="25" class="label">1/327</text>
      </g>

      <g class="room" data-room="1/328" transform="translate(905,300)">
        <rect width="45" height="75"/>
        <text x="25" y="40" class="label">1/328</text>
      </g>
    </g>
  </g>
</g>


</svg>
