<svg
  xmlns="http://www.w3.org/2000/svg"
  viewBox="0 0 1500 1500"
  preserveAspectRatio="xMidYMid meet">


<style>
  .room {
    fill: #e6f1ff;
    stroke: #9bbcf2;
    stroke-width: 1.2;
    cursor: pointer;
    transition: fill 0.15s;
  }
  .room:hover { fill: #cfe3ff; }

  .label {
    font-size: 13px;
    fill: #2c2c2c;
    text-anchor: middle;
    dominant-baseline: middle;
    pointer-events: none;
  }

  .corridor { fill:  #ded1d1ff; }

  .service {
    fill: #e0e0e0;
    stroke: #aaa;
  }

  .stair {
    fill: #4da3ff;
    stroke: #2c6fb7;
    stroke-width: 1;
  }
</style>

<g transform="translate(200,250)">
  <!-- ===== КОРИДОРЫ ===== -->
  <rect class="corridor" x="20" y="105" width="1065" height="30"/>
  <rect class="corridor" x="525" y="105" width="30" height="380"/>
  <rect class="corridor" x="525" y="130" width="55" height="70"/>
  <rect class="corridor" x="445" y="595" width="190" height="50"/>
  <rect class="corridor" x="75" y="600" width="95" height="45"/>
  <rect class="corridor" x="75" y="605" width="945" height="30"/>
  <rect class="corridor" x="95" y="635" width="25" height="280"/>
  <rect class="corridor" x="925" y="600" width="95" height="45"/>
  <rect class="corridor" x="975" y="635" width="25" height="280"/>

  <!-- ===== 2 КОРПУС ===== -->
  <g>
    <!-- ===== ВЕРХНИЙ РЯД АУДИТОРИЙ 2 КОРПУСА ===== -->
    <g transform="translate(20,40)">

      <g class="room" data-room="2/400">
        <rect width="40" height="60"/>
        <text x="20" y="30" class="label">2/400</text>
      </g>

      <g class="room" data-room="2/401a" transform="translate(45,0)">
        <rect width="40" height="60"/>
        <text x="20" y="30" class="label">2/401a</text>
      </g>

      <g class="room" data-room="2/401" transform="translate(90,0)">
        <rect width="110" height="60"/>
        <text x="40" y="30" class="label">2/401</text>
      </g>

      <!-- WC -->
      <g class="service" transform="translate(205,0)">
        <rect width="25" height="60"/>
        <text x="13" y="30" class="label">WC</text>
      </g>

      <!-- ЛЕСТНИЦА 1 -->
      <g class="stair" data-node="stair_2_1" transform="translate(235,0)">
        <rect width="60" height="60" />
        <text x="20" y="24" class="label">⇧</text>
      </g>

      <g class="room" data-room="2/402" transform="translate(300,0)">
        <rect width="45" height="60"/>
        <text x="25" y="30" class="label">2/402</text>
      </g>

      <g class="room" data-room="2/403" transform="translate(350,0)">
        <rect width="70" height="60"/>
        <text x="35" y="30" class="label">2/403</text>
      </g>

      <g class="room" data-room="2/404" transform="translate(425,0)">
        <rect width="60" height="60"/>
        <text x="30" y="30" class="label">2/404</text>
      </g>

      <g class="room" data-room="2/406" transform="translate(490,0)">
        <rect width="80" height="60"/>
        <text x="40" y="30" class="label">2/406</text>
      </g>

      <g class="room" data-room="2/407" transform="translate(575,0)">
        <rect width="60" height="60"/>
        <text x="30" y="30" class="label">2/407</text>
      </g>

      <g class="room" data-room="2/408" transform="translate(640,0)">
        <rect width="70" height="60"/>
        <text x="35" y="30" class="label">2/408</text>
      </g>

      <g class="room" data-room="2/409" transform="translate(715,0)">
        <rect width="60" height="60"/>
        <text x="30" y="30" class="label">2/409</text>
      </g>

      <!-- ЛЕСТНИЦА 2 -->
      <g class="stair" data-node="stair_2_2" transform="translate(780,0)">
        <rect width="60" height="60" />
        <text x="20" y="24" class="label">⇧</text>
      </g>

      <!-- WC -->
      <g class="service" transform="translate(845,0)">
        <rect width="50" height="60"/>
        <text x="25" y="30" class="label">WC</text>
      </g>

      <g class="room" data-room="2/410" transform="translate(900,0)">
        <rect width="80" height="60"/>
        <text x="40" y="30" class="label">2/410</text>
      </g>

      <g class="room" data-room="2/311" transform="translate(985,0)">
        <rect width="80" height="60"/>
        <text x="40" y="30" class="label">2/411</text>
      </g>

    </g>

    <!-- ===== НИЖНИЙ РЯД 2 КОРПУСА ===== -->
    <g transform="translate(20,140)">
      <g class="room" data-room="conferemce-hall">
        <rect width="125" height="100"/>
        <text x="60" y="50" class="label">Конференц зал</text>
      </g>

      <g class="room" data-room="2/430" transform="translate(130,0)">
        <rect width="100" height="100"/>
        <text x="50" y="50" class="label">2/430</text>
      </g>

      <g class="room" data-room="2/429" transform="translate(235,0)">
        <rect width="50" height="60"/>
        <text x="25" y="30" class="label">2/429</text>
      </g>

      <g class="room" data-room="2/428" transform="translate(290,0)">
        <rect width="55" height="60"/>
        <text x="30" y="30" class="label">2/428</text>
      </g>

      <g class="room" data-room="2/427" transform="translate(350,0)">
        <rect width="60" height="60"/>
        <text x="30" y="30" class="label">2/427</text>
      </g>

      <g class="room" data-room="2/426" transform="translate(415,0)">
        <rect width="60" height="60"/>
        <text x="30" y="30" class="label">2/426</text>
      </g>

      <g class="service" transform="translate(480,0)">
        <rect width="20" height="60"/>
        <text x="10" y="30" class="label">Кофейня</text>
      </g>

      <g class="room" data-room="2/415" transform="translate(565,0)">
        <rect width="70" height="60"/>
        <text x="35" y="30" class="label">2/415</text>
      </g>

      <g class="room" data-room="2/414" transform="translate(640,0)">
        <rect width="115" height="60"/>
        <text x="60" y="30" class="label">2/414</text>
      </g>

      <g class="room" data-room="2/412" transform="translate(760,0)">
          <rect width="80" height="60"/>
          <text x="40" y="30" class="label">2/412</text>
      </g>

      <g class="room" data-room="1" transform="translate(845,0)">
          <rect width="220" height="100"/>
          <text x="40" y="30" class="label"></text>
      </g>

      <g class="room" data-room="2/418" transform="translate(540,65)">
        <rect width="50" height="60"/>
        <text x="25" y="30" class="label">2/418</text>
      </g>

      <g class="room" data-room="2/419" transform="translate(540,130)">
        <rect width="50" height="50"/>
        <text x="25" y="25" class="label">2/419</text>
      </g>

      <g class="room" data-room="2/420" transform="translate(540,185)">
        <rect width="50" height="50"/>
        <text x="25" y="25" class="label">2/420</text>
      </g>

      <g class="room" data-room="2" transform="translate(540,240)">
        <rect width="50" height="50"/>
        <text x="25" y="25" class="label"></text>
      </g>

      <g class="room" data-room="3" transform="translate(540,295)">
        <rect width="50" height="50"/>
        <text x="25" y="25" class="label"></text>
      </g>

      <g class="room" data-room="2/423" transform="translate(450,185)">
        <rect width="50" height="50"/>
        <text x="25" y="25" class="label">2/423</text>
      </g>

      <g class="room" data-room="2/422" transform="translate(450,240)">
        <rect width="50" height="50"/>
        <text x="25" y="25" class="label">2/422</text>
      </g>

      <g class="room" data-room="2/421" transform="translate(450,295)">
        <rect width="50" height="50"/>
        <text x="25" y="25" class="label">2/421</text>
      </g>
      
      <!-- ЛЕСТНИЦА 3 -->
      <g class="stair" data-node="stair_2_3" transform="translate(450,135)">
        <rect width="50" height="20" />
        <text x="25" y="10" class="label">⇧</text>
      </g>

      <g class="room" data-room="" transform="translate(450,160)">
        <rect width="50" height="20"/>
        <text x="25" y="25" class="label"></text>
      </g>

      <g class="room" data-room="2/425" transform="translate(450,65)">
        <rect width="50" height="65"/>
        <text x="25" y="30" class="label">2/425</text>
      </g>
    </g>
  </g>

  <!-- ===== 1 КОРПУС ===== -->
  <g>
    <!-- ===== ВЕРХНИЙ РЯД 1 КОРПУСА ===== -->
    <g transform="translate(20,490)">

      <!-- ЛЕСТНИЦА ГЛАВНАЯ -->
      <g class="stair" data-node="stair_main" transform="translate(480,0)">
        <rect width="80" height="100" />
        <text x="40" y="40" class="label">⇧</text>
      </g>

      <g class="room" data-room="1/401" transform="translate(425,0)">
        <rect width="50" height="100"/>
        <text x="25" y="30" class="label">1/401</text>
      </g>

      <g class="room" data-room="1/450" transform="translate(565,0)">
        <rect width="50" height="100"/>
        <text x="25" y="30" class="label">1/450</text>
      </g>

      <g class="room" data-room="1/402" transform="translate(395,50)">
        <rect width="25" height="60"/>
        <text x="15" y="30" class="label">1/402</text>
      </g>

      <g class="room" data-room="1/403" transform="translate(290,50)">
        <rect width="100" height="60"/>
        <text x="45" y="30" class="label">1/403</text>
      </g>

      <g class="room" data-room="5" transform="translate(260,50)">
        <rect width="25" height="60"/>
        <text x="15" y="30" class="label"></text>
      </g>

      <g class="room" data-room="1/405" transform="translate(155,50)">
        <rect width="100" height="60"/>
        <text x="45" y="30" class="label">1/405</text>
      </g>

      <g class="room" data-room="1/406" transform="translate(90,50)">
        <rect width="60" height="55"/>
        <text x="30" y="30" class="label">1/406</text>
      </g>

      <g class="room" data-room="1/407" transform="translate(0,50)">
        <rect width="85" height="55"/>
        <text x="45" y="30" class="label">1/407</text>
      </g>

    <!-- ЛЕСТНИЦА 1 -->
      <g class="stair" data-node="stair_1_1" transform="translate(0,110)">
        <rect width="50" height="45" />
        <text x="25" y="10" class="label">⇧</text>
      </g>

      <g class="room" data-room="1/408" transform="translate(0,160)">
        <rect width="70" height="35"/>
        <text x="35" y="20" class="label">1/408</text>
      </g>

      <g class="room" data-room="1/409" transform="translate(0,200)">
        <rect width="70" height="45"/>
        <text x="35" y="25" class="label">1/409</text>
      </g>

      <g class="room" data-room="1/410" transform="translate(0,250)">
        <rect width="70" height="85"/>
        <text x="35" y="40" class="label">1/410</text>
      </g>

      <g class="room" data-room="1/411" transform="translate(0,340)">
        <rect width="70" height="85"/>
        <text x="35" y="40" class="label">1/411</text>
      </g>

      <g class="room" data-room="conferemce-hall" transform="translate(0,430)">
        <rect width="230" height="90"/>
        <text x="80" y="45" class="label"></text>
      </g>

      <g class="room" data-room="1/445" transform="translate(740,50)">
        <rect width="100" height="60"/>
        <text x="45" y="30" class="label">1/445</text>
      </g>

    <g class="room" data-room="6" transform="translate(905,50)">
        <rect width="45" height="55"/>
        <text x="15" y="30" class="label"></text>
      </g>

      <g class="room" data-room="1/440" transform="translate(955,50)">
        <rect width="100" height="55"/>
        <text x="45" y="30" class="label">1/440</text>
      </g>

      <g class="room" data-room="1/444" transform="translate(845,50)">
        <rect width="55" height="60"/>
        <text x="30" y="30" class="label">1/444</text>
      </g>

      <g class="room" data-room="1/449" transform="translate(620,50)">
        <rect width="85" height="60"/>
        <text x="45" y="30" class="label">1/449</text>
      </g>

      <!-- ЛЕСТНИЦА 3 -->
      <g class="stair" data-node="stair_1_3" transform="translate(1005,110)">
        <rect width="50" height="45" />
        <text x="25" y="10" class="label">⇧</text>
      </g>

      <g class="room" data-room="1/435" transform="translate(985,160)">
        <rect width="70" height="35"/>
        <text x="35" y="20" class="label">1/435</text>
      </g>

      <g class="room" data-room="1/431" transform="translate(985,200)">
        <rect width="70" height="45"/>
        <text x="35" y="25" class="label">1/431</text>
      </g>

      <g class="room" data-room="1/430" transform="translate(985,250)">
        <rect width="70" height="85"/>
        <text x="35" y="40" class="label">1/430</text>
      </g>

      <g class="room" data-room="1/429" transform="translate(985,340)">
        <rect width="70" height="85"/>
        <text x="35" y="40" class="label">1/429</text>
      </g>

      <g class="room" data-room="conferemce-hall" transform="translate(825,430)">
        <rect width="230" height="90"/>
        <text x="120" y="45" class="label"></text>
      </g>

    </g>

    <!-- ===== НИЖДНИЙЦ РЯД 1 КОРПУСА ===== -->
    <g transform="translate(20,490)">

    <!-- ЛЕСТНИЦА 2 -->
      <g class="stair" data-node="stair_1_2" transform="translate(105,380)">
        <rect width="45" height="45" />
        <text x="25" y="10" class="label">⇧</text>
      </g>

      <g class="service" transform="translate(105,160)">
        <rect width="45" height="85"/>
        <text x="25" y="40" class="label">WC</text>
      </g>

      <g class="room" data-room="1/413" transform="translate(105,250)">
        <rect width="45" height="45"/>
        <text x="25" y="25" class="label">1/413</text>
      </g>

      <g class="room" data-room="1/412" transform="translate(105,300)">
        <rect width="45" height="75"/>
        <text x="25" y="40" class="label">1/412</text>
      </g>

      <g class="room" data-room="1/415" transform="translate(155,150)">
        <rect width="60" height="60"/>
        <text x="30" y="30" class="label">1/415</text>
      </g>

      <g class="room" data-room="1/416" transform="translate(220,150)">
        <rect width="80" height="60"/>
        <text x="40" y="30" class="label">1/416</text>
      </g>

      <g class="room" data-room="7" transform="translate(305,150)">
        <rect width="25" height="60"/>
        <text x="15" y="30" class="label"></text>
      </g>

      <g class="room" data-room="8" transform="translate(335,150)">
        <rect width="25" height="60"/>
        <text x="15" y="30" class="label"></text>
      </g>

      <g class="room" data-room="1/419" transform="translate(365,150)">
        <rect width="55" height="60"/>
        <text x="30" y="30" class="label">1/419</text>
      </g>

      <g class="room" data-room="action-hall" transform="translate(425,160)">
        <rect width="190" height="200"/>
        <text x="95" y="100" class="label">Актовый зал</text>
      </g>

      <g class="room" data-room="1/421" transform="translate(620,150)">
        <rect width="60" height="60"/>
        <text x="30" y="30" class="label">1/421</text>
      </g>

      <g class="room" data-room="1/422" transform="translate(685,150)">
        <rect width="80" height="60"/>
        <text x="40" y="30" class="label">1/422</text>
      </g>

      <g class="room" data-room="9" transform="translate(770,150)">
        <rect width="25" height="60"/>
        <text x="15" y="30" class="label"></text>
      </g>

      <g class="room" data-room="10" transform="translate(800,150)">
        <rect width="25" height="60"/>
        <text x="15" y="30" class="label"></text>
      </g>

      <g class="room" data-room="1/425" transform="translate(830,150)">
        <rect width="70" height="60"/>
        <text x="30" y="30" class="label">1/425</text>
      </g>

    <g class="room" data-room="11" transform="translate(710,50)">
        <rect width="25" height="60"/>
        <text x="15" y="30" class="label"></text>
      </g>

      <!-- ЛЕСТНИЦА 4 -->
      <g class="stair" data-node="stair_1_4" transform="translate(905,380)">
        <rect width="45" height="45" />
        <text x="25" y="10" class="label">⇧</text>
      </g>

      <g class="service" transform="translate(905,160)">
        <rect width="45" height="85"/>
        <text x="25" y="40" class="label">WC</text>
      </g>

      <g class="room" data-room="1/427" transform="translate(905,250)">
        <rect width="45" height="45"/>
        <text x="25" y="25" class="label">1/427</text>
      </g>

      <g class="room" data-room="1/428" transform="translate(905,300)">
        <rect width="45" height="75"/>
        <text x="25" y="40" class="label">1/428</text>
      </g>
    </g>
  </g>
</g>
</svg>
